<svg width="35" height="35" xmlns="http://www.w3.org/2000/svg" viewBox="0 0 35 34.9"><defs><style>.a{fill:#7954ff;}.b{fill:#78eac1;}</style></defs><path class="a" d="M22.3,13.4A1.4,1.4,0,1,0,20.9,12,1.4,1.4,0,0,0,22.3,13.4Z"/><path class="a" d="M12.7,21.2h0a6.28,6.28,0,0,1-1.2-3.7,5.81,5.81,0,0,1,5.9-5.9,6.75,6.75,0,0,1,1.4.2l2-2.4A8.85,8.85,0,0,0,9.4,21.3Z"/><path class="b" d="M17.5,0A17.35,17.35,0,0,0,0,17.3v.4a18,18,0,0,0,1,5.7H17.3a6.11,6.11,0,0,0,4.4-1.7,5.89,5.89,0,0,0,1.7-4.2,5.22,5.22,0,0,0-.4-2.1L25,13a8.66,8.66,0,0,1,1.2,4.5,8.38,8.38,0,0,1-2.6,6.2,8.86,8.86,0,0,1-6,2.6H2.2a17.39,17.39,0,0,0,15.1,8.6A17.38,17.38,0,0,0,35,17.7v-.4A17.41,17.41,0,0,0,17.5,0Zm1.3,11.7a5.8,5.8,0,0,0-7.3,5.7,5.77,5.77,0,0,0,1.3,3.7v.1H9.5A8.85,8.85,0,0,1,20.9,9.3ZM23.4,13a1.41,1.41,0,0,1-2-2,1.34,1.34,0,0,1,2,0A1.52,1.52,0,0,1,23.4,13Z"/><path class="a" d="M23,15.4a7.79,7.79,0,0,1,.4,2.1,5.89,5.89,0,0,1-1.7,4.2,5.72,5.72,0,0,1-4.4,1.7H1a25.5,25.5,0,0,0,1.3,2.9H17.7a8.86,8.86,0,0,0,6-2.6,8.71,8.71,0,0,0,2.6-6.2A8.92,8.92,0,0,0,25.1,13Z"/></svg>